<mxfile host="app.diagrams.net" modified="2023-06-16T01:36:26.426Z" agent="Mozilla/5.0 (Macintosh; Intel Mac OS X 10_15_7) AppleWebKit/537.36 (KHTML, like Gecko) Chrome/114.0.0.0 Safari/537.36 Edg/114.0.1823.37" version="21.4.0" etag="nV6hWvupjJ-r4VxvmKMT" type="github">
  <diagram name="Page-1" id="EC22fqZkBWLHM0SniHHO">
    <mxGraphModel>
      <root>
        <mxCell id="0" />
        <mxCell id="1" parent="0" />
      </root>
    </mxGraphModel>
  </diagram>
</mxfile>
